<svg xmlns="http://www.w3.org/2000/svg" xmlns:svg="http://www.w3.org/2000/svg" id="svg2" width="20" height="20" version="1.1" viewBox="0 0 20 20"><metadata id="metadata7"/><g id="layer1" transform="translate(-598.19866,-941.68122)"><rect id="rect4274" width="1" height="1" x="600.199" y="945.681" fill="#7b7b7b" fill-opacity="1" stroke="none" stroke-dasharray="none" stroke-miterlimit="4" stroke-opacity="1" stroke-width="1"/><rect id="rect4276" width="1" height="1" x="600.199" y="947.681" fill="#7b7b7b" fill-opacity="1" stroke="none" stroke-dasharray="none" stroke-miterlimit="4" stroke-opacity="1" stroke-width="1"/><rect id="rect4278" width="1" height="1" x="600.199" y="949.681" fill="#7b7b7b" fill-opacity="1" stroke="none" stroke-dasharray="none" stroke-miterlimit="4" stroke-opacity="1" stroke-width="1"/><rect id="rect4272-9" width="1" height="1" x="600.199" y="943.681" fill="#7b7b7b" fill-opacity="1" stroke="none" stroke-dasharray="none" stroke-miterlimit="4" stroke-opacity="1" stroke-width="1"/><rect id="rect4274-6" width="1" height="1" x="602.199" y="943.681" fill="#7b7b7b" fill-opacity="1" stroke="none" stroke-dasharray="none" stroke-miterlimit="4" stroke-opacity="1" stroke-width="1"/><rect id="rect4276-2" width="1" height="1" x="604.199" y="943.681" fill="#7b7b7b" fill-opacity="1" stroke="none" stroke-dasharray="none" stroke-miterlimit="4" stroke-opacity="1" stroke-width="1"/><rect id="rect4278-5" width="1" height="1" x="606.199" y="943.681" fill="#7b7b7b" fill-opacity="1" stroke="none" stroke-dasharray="none" stroke-miterlimit="4" stroke-opacity="1" stroke-width="1"/><rect id="rect4310" width="1" height="6" x="943.681" y="-616.199" fill="#7b7b7b" fill-opacity="1" transform="matrix(0,1,-1,0,0,0)"/><rect id="rect4312" width="1" height="16" x="958.681" y="-616.199" fill="#7b7b7b" fill-opacity="1" transform="matrix(0,1,-1,0,0,0)"/><rect id="rect4314" width="1" height="14" x="615.199" y="944.681" fill="#7b7b7b" fill-opacity="1"/><rect id="rect4316" width="1" height="5" x="600.199" y="953.681" fill="#7b7b7b" fill-opacity="1"/><rect id="rect4322" width="1" height="1" x="602.199" y="951.681" fill="#7b7b7b" fill-opacity="1" stroke="none" stroke-dasharray="none" stroke-miterlimit="4" stroke-opacity="1" stroke-width="1"/><rect id="rect4324" width="1" height="1" x="604.199" y="951.681" fill="#7b7b7b" fill-opacity="1" stroke="none" stroke-dasharray="none" stroke-miterlimit="4" stroke-opacity="1" stroke-width="1"/><rect id="rect4326" width="1" height="1" x="606.199" y="951.681" fill="#7b7b7b" fill-opacity="1" stroke="none" stroke-dasharray="none" stroke-miterlimit="4" stroke-opacity="1" stroke-width="1"/><rect id="rect4328" width="1" height="1" x="608.199" y="945.681" fill="#7b7b7b" fill-opacity="1" stroke="none" stroke-dasharray="none" stroke-miterlimit="4" stroke-opacity="1" stroke-width="1"/><rect id="rect4330" width="1" height="1" x="608.199" y="947.681" fill="#7b7b7b" fill-opacity="1" stroke="none" stroke-dasharray="none" stroke-miterlimit="4" stroke-opacity="1" stroke-width="1"/><rect id="rect4332" width="1" height="1" x="608.199" y="951.681" fill="#7b7b7b" fill-opacity="1" stroke="none" stroke-dasharray="none" stroke-miterlimit="4" stroke-opacity="1" stroke-width="1"/><rect id="rect4334" width="1" height="1" x="608.199" y="943.681" fill="#7b7b7b" fill-opacity="1" stroke="none" stroke-dasharray="none" stroke-miterlimit="4" stroke-opacity="1" stroke-width="1"/><rect id="rect4336" width="1" height="1" x="600.199" y="951.681" fill="#7b7b7b" fill-opacity="1" stroke="none" stroke-dasharray="none" stroke-miterlimit="4" stroke-opacity="1" stroke-width="1"/><rect id="rect4338" width="1" height="1" x="608.199" y="949.681" fill="#7b7b7b" fill-opacity="1" stroke="none" stroke-dasharray="none" stroke-miterlimit="4" stroke-opacity="1" stroke-width="1"/></g></svg>