<svg xmlns="http://www.w3.org/2000/svg" xmlns:svg="http://www.w3.org/2000/svg" id="svg2" width="20" height="20" version="1.1" viewBox="0 0 20 20"><metadata id="metadata7"/><g id="layer1" display="inline" transform="translate(-598.19866,-941.68122)"><rect id="rect3905" width="20" height="20" x="598.199" y="941.681" fill="none" fill-opacity="1" stroke="none" stroke-dasharray="1 2" stroke-dashoffset="0" stroke-miterlimit="4" stroke-opacity="1" stroke-width="1" opacity="1"/><g id="g928" transform="translate(2,0.99970675)"><path id="rect3714" fill="#7b7b7b" fill-opacity="1" stroke="none" stroke-dasharray="none" stroke-miterlimit="4" stroke-opacity="1" stroke-width=".401" d="m 611.19866,942.68122 1.93038,1.50001 -1.93038,1.49999 z" opacity="1"/><path id="path872" fill="none" stroke="#7b7b7b" stroke-linecap="butt" stroke-linejoin="miter" stroke-opacity="1" stroke-width="1" d="m 600.19866,944.19888 h 12"/></g><g id="g1556" transform="translate(0,0.99970675)"><g id="g1540"><rect id="rect4328" width="1" height="1" x="607.199" y="949.681" fill="#7b7b7b" fill-opacity="1" stroke="none" stroke-dasharray="none" stroke-miterlimit="4" stroke-opacity="1" stroke-width="1"/><rect id="rect4330" width="1" height="1" x="607.199" y="951.681" fill="#7b7b7b" fill-opacity="1" stroke="none" stroke-dasharray="none" stroke-miterlimit="4" stroke-opacity="1" stroke-width="1"/><rect id="rect4334" width="1" height="1" x="607.199" y="947.682" fill="#7b7b7b" fill-opacity="1" stroke="none" stroke-dasharray="none" stroke-miterlimit="4" stroke-opacity="1" stroke-width="1"/><rect id="rect2001" width="1" height="1" x="607.199" y="953.681" fill="#7b7b7b" fill-opacity="1" stroke="none" stroke-dasharray="none" stroke-miterlimit="4" stroke-opacity="1" stroke-width="1"/><rect id="rect2003" width="1" height="1" x="607.199" y="955.681" fill="#7b7b7b" fill-opacity="1" stroke="none" stroke-dasharray="none" stroke-miterlimit="4" stroke-opacity="1" stroke-width="1"/><rect id="rect4274" width="1" height="1" x="603.199" y="949.681" fill="#7b7b7b" fill-opacity="1" stroke="none" stroke-dasharray="none" stroke-miterlimit="4" stroke-opacity="1" stroke-width="1"/><rect id="rect4276" width="1" height="1" x="601.199" y="950.681" fill="#7b7b7b" fill-opacity="1" stroke="none" stroke-dasharray="none" stroke-miterlimit="4" stroke-opacity="1" stroke-width="1"/><rect id="rect4276-2" width="1" height="1" x="605.199" y="948.681" fill="#7b7b7b" fill-opacity="1" stroke="none" stroke-dasharray="none" stroke-miterlimit="4" stroke-opacity="1" stroke-width="1"/><rect id="rect906" width="1" height="1" x="603.199" y="-954.681" fill="#7b7b7b" fill-opacity="1" stroke="none" stroke-dasharray="none" stroke-miterlimit="4" stroke-opacity="1" stroke-width="1" transform="scale(1,-1)"/><rect id="rect908" width="1" height="1" x="601.199" y="-953.681" fill="#7b7b7b" fill-opacity="1" stroke="none" stroke-dasharray="none" stroke-miterlimit="4" stroke-opacity="1" stroke-width="1" transform="scale(1,-1)"/><rect id="rect910" width="1" height="1" x="605.199" y="-955.681" fill="#7b7b7b" fill-opacity="1" stroke="none" stroke-dasharray="none" stroke-miterlimit="4" stroke-opacity="1" stroke-width="1" transform="scale(1,-1)"/><rect id="rect912" width="1" height="1" x="599.199" y="-952.681" fill="#7b7b7b" fill-opacity="1" stroke="none" stroke-dasharray="none" stroke-miterlimit="4" stroke-opacity="1" stroke-width="1" transform="scale(1,-1)"/></g><path id="path924" fill="none" fill-opacity="1" stroke="#7b7b7b" stroke-dasharray="none" stroke-miterlimit="4" stroke-opacity="1" stroke-width=".483" d="m 613.13516,955.79925 -1.93649,0 -1.93649,0 0.96824,-1.67705 0.96825,-1.67705 0.96825,1.67705 z" opacity="1" transform="matrix(0,2.0721381,-2.0721381,0,2590.0775,-314.38424)"/></g></g><g id="g1596" display="none" transform="translate(-598.19866,-941.68122)"><rect id="rect1558" width="20" height="20" x="598.199" y="941.681" fill="none" fill-opacity="1" stroke="none" stroke-dasharray="1 2" stroke-dashoffset="0" stroke-miterlimit="4" stroke-opacity="1" stroke-width="1" opacity="1"/><g id="g1602"><path id="path1560" fill="#7b7b7b" fill-opacity="1" stroke="none" stroke-dasharray="none" stroke-miterlimit="4" stroke-opacity="1" stroke-width=".401" d="m 616.19866,955.75084 -1.50001,1.93038 -1.49999,-1.93038 z" opacity="1"/><path id="path1562" fill="none" stroke="#7b7b7b" stroke-linecap="butt" stroke-linejoin="miter" stroke-opacity="1" stroke-width="1" d="m 614.69866,944.68122 v 12"/></g><g id="g1590" transform="rotate(90,608.19872,951.68127)"><rect id="rect1566" width="1" height="1" x="607.199" y="949.681" fill="#7b7b7b" fill-opacity="1" stroke="none" stroke-dasharray="none" stroke-miterlimit="4" stroke-opacity="1" stroke-width="1"/><rect id="rect1568" width="1" height="1" x="607.199" y="951.681" fill="#7b7b7b" fill-opacity="1" stroke="none" stroke-dasharray="none" stroke-miterlimit="4" stroke-opacity="1" stroke-width="1"/><rect id="rect1570" width="1" height="1" x="607.199" y="947.682" fill="#7b7b7b" fill-opacity="1" stroke="none" stroke-dasharray="none" stroke-miterlimit="4" stroke-opacity="1" stroke-width="1"/><rect id="rect1572" width="1" height="1" x="607.199" y="953.681" fill="#7b7b7b" fill-opacity="1" stroke="none" stroke-dasharray="none" stroke-miterlimit="4" stroke-opacity="1" stroke-width="1"/><rect id="rect1574" width="1" height="1" x="607.199" y="955.681" fill="#7b7b7b" fill-opacity="1" stroke="none" stroke-dasharray="none" stroke-miterlimit="4" stroke-opacity="1" stroke-width="1"/><rect id="rect1576" width="1" height="1" x="603.199" y="949.681" fill="#7b7b7b" fill-opacity="1" stroke="none" stroke-dasharray="none" stroke-miterlimit="4" stroke-opacity="1" stroke-width="1"/><rect id="rect1578" width="1" height="1" x="601.199" y="950.681" fill="#7b7b7b" fill-opacity="1" stroke="none" stroke-dasharray="none" stroke-miterlimit="4" stroke-opacity="1" stroke-width="1"/><rect id="rect1580" width="1" height="1" x="605.199" y="948.681" fill="#7b7b7b" fill-opacity="1" stroke="none" stroke-dasharray="none" stroke-miterlimit="4" stroke-opacity="1" stroke-width="1"/><rect id="rect1582" width="1" height="1" x="603.199" y="-954.681" fill="#7b7b7b" fill-opacity="1" stroke="none" stroke-dasharray="none" stroke-miterlimit="4" stroke-opacity="1" stroke-width="1" transform="scale(1,-1)"/><rect id="rect1584" width="1" height="1" x="601.199" y="-953.681" fill="#7b7b7b" fill-opacity="1" stroke="none" stroke-dasharray="none" stroke-miterlimit="4" stroke-opacity="1" stroke-width="1" transform="scale(1,-1)"/><rect id="rect1586" width="1" height="1" x="605.199" y="-955.681" fill="#7b7b7b" fill-opacity="1" stroke="none" stroke-dasharray="none" stroke-miterlimit="4" stroke-opacity="1" stroke-width="1" transform="scale(1,-1)"/><rect id="rect1588" width="1" height="1" x="599.199" y="-952.681" fill="#7b7b7b" fill-opacity="1" stroke="none" stroke-dasharray="none" stroke-miterlimit="4" stroke-opacity="1" stroke-width="1" transform="scale(1,-1)"/></g><path id="path1592" fill="none" fill-opacity="1" stroke="#7b7b7b" stroke-dasharray="none" stroke-miterlimit="4" stroke-opacity="1" stroke-width="1" d="m -603.68587,-952.90282 -4.01268,0 -4.01268,0 2.00634,-3.47508 2.00634,-3.47509 2.00634,3.47509 z" opacity="1" transform="scale(-1)"/></g></svg>