<svg xmlns="http://www.w3.org/2000/svg" xmlns:svg="http://www.w3.org/2000/svg" id="svg2" width="520.072" height="520.356" version="1.1" viewBox="0 0 487.567 487.833"><metadata id="metadata7"/><g id="layer1" transform="translate(-109.36193,-138.15297)"><path id="path4171" fill="#e1e1e1" fill-opacity="1" stroke="#e1e1e1" stroke-dasharray="none" stroke-miterlimit="4" stroke-opacity="1" stroke-width="1.5" d="m 313.97781,165.14696 c -97.73726,-4.3e-4 -176.96906,79.23012 -176.96863,176.96583 5.8e-4,97.735 79.23209,176.96443 176.96863,176.964 97.73583,-5.8e-4 176.96622,-79.22972 176.9668,-176.964 4.4e-4,-97.735 -79.23025,-176.96525 -176.9668,-176.96583 z m 126.9583,110.12671 c 11.44854,19.37311 14.7005,43.48301 13.00864,71.43106 l -91.34207,-87.71372 c 19.75085,-4.23156 58.42549,3.97954 78.33343,16.28266 z M 318.99206,267.8046 444.47943,389.67371 c -0.78244,6.81388 -13.82213,32.73329 -23.12834,38.71379 L 284.29485,290.25484 c 5.40432,-7.5738 25.13581,-19.49023 34.69721,-22.45024 z m -62.25994,48.00232 138.70469,140.75292 c -6.57768,5.12656 -26.60888,16.44822 -33.15369,19.11488 L 237.7296,356.22275 c 1.57989,-10.0213 12.3487,-32.71135 19.00252,-40.41583 z m -27.04435,85.4818 84.25252,79.96909 c -21.00544,5.27704 -53.64368,-7.13316 -66.72533,-14.28862 -10.63868,-11.03069 -18.93756,-38.40004 -17.52719,-65.68047 z" opacity="1"/><ellipse id="path4274" cx="389.812" cy="416.483" fill="none" fill-opacity="1" stroke="#e1e1e1" stroke-dasharray="none" stroke-miterlimit="4" stroke-opacity="1" stroke-width="41.8" opacity="1" rx="160.099" ry="160.097"/></g></svg>