<svg xmlns="http://www.w3.org/2000/svg" xmlns:svg="http://www.w3.org/2000/svg" id="svg848" width="20" height="20" version="1.1" viewBox="0 0 5.292 5.292"><metadata id="metadata845"/><g id="layer1" transform="translate(0,-291.70831)"><rect id="rect1395" width="1.587" height=".265" x="-2.381" y="292.502" fill="#4d4d4d" fill-opacity="1" stroke="none" stroke-dasharray="none" stroke-miterlimit="4" stroke-opacity="1" stroke-width="5.805" opacity="1" transform="scale(-1,1)"/><rect id="rect4528" width="1.587" height=".265" x="-2.381" y="296.206" fill="#4d4d4d" fill-opacity="1" stroke="none" stroke-dasharray="none" stroke-miterlimit="4" stroke-opacity="1" stroke-width="5.805" opacity="1" transform="scale(-1,1)"/><rect id="rect4530" width="2.646" height=".265" x="293.825" y="2.117" fill="#4d4d4d" fill-opacity="1" stroke="none" stroke-dasharray="none" stroke-miterlimit="4" stroke-opacity="1" stroke-width="7.494" opacity="1" transform="matrix(0,1,1,0,0,0)"/><rect id="rect4532" width="3.969" height=".265" x="292.502" y=".794" fill="#4d4d4d" fill-opacity="1" stroke="none" stroke-dasharray="none" stroke-miterlimit="4" stroke-opacity="1" stroke-width="9.178" opacity="1" transform="matrix(0,1,1,0,0,0)"/><rect id="rect4536" width=".794" height=".265" x="-2.381" y="293.825" fill="#4d4d4d" fill-opacity="1" stroke="none" stroke-dasharray="none" stroke-miterlimit="4" stroke-opacity="1" stroke-width="4.104" opacity="1" transform="scale(-1,1)"/><rect id="rect4542" width=".794" height=".265" x="-2.381" y="294.619" fill="#4d4d4d" fill-opacity="1" stroke="none" stroke-dasharray="none" stroke-miterlimit="4" stroke-opacity="1" stroke-width="4.104" opacity="1" transform="scale(-1,1)"/><rect id="rect4544" width=".794" height=".265" x="-2.381" y="295.412" fill="#4d4d4d" fill-opacity="1" stroke="none" stroke-dasharray="none" stroke-miterlimit="4" stroke-opacity="1" stroke-width="4.104" opacity="1" transform="scale(-1,1)"/><rect id="rect5130" width="1.587" height=".265" x="-294.09" y="-4.762" fill="#4d4d4d" fill-opacity="1" stroke="none" stroke-dasharray="none" stroke-miterlimit="4" stroke-opacity="1" stroke-width="5.805" opacity="1" transform="matrix(0,-1,-1,0,0,0)"/><rect id="rect5132" width="1.587" height=".265" x="-294.09" y="-1.058" fill="#4d4d4d" fill-opacity="1" stroke="none" stroke-dasharray="none" stroke-miterlimit="4" stroke-opacity="1" stroke-width="5.805" opacity="1" transform="matrix(0,-1,-1,0,0,0)"/><rect id="rect5134" width="2.646" height=".265" x="-4.763" y="293.825" fill="#4d4d4d" fill-opacity="1" stroke="none" stroke-dasharray="none" stroke-miterlimit="4" stroke-opacity="1" stroke-width="7.494" opacity="1" transform="scale(-1,1)"/><rect id="rect5136" width="3.969" height=".265" x="-4.763" y="292.502" fill="#4d4d4d" fill-opacity="1" stroke="none" stroke-dasharray="none" stroke-miterlimit="4" stroke-opacity="1" stroke-width="9.178" opacity="1" transform="scale(-1,1)"/><rect id="rect5138" width=".794" height=".265" x="-294.09" y="-3.969" fill="#4d4d4d" fill-opacity="1" stroke="none" stroke-dasharray="none" stroke-miterlimit="4" stroke-opacity="1" stroke-width="4.104" opacity="1" transform="matrix(0,-1,-1,0,0,0)"/><rect id="rect5140" width=".794" height=".265" x="-294.09" y="-3.175" fill="#4d4d4d" fill-opacity="1" stroke="none" stroke-dasharray="none" stroke-miterlimit="4" stroke-opacity="1" stroke-width="4.104" opacity="1" transform="matrix(0,-1,-1,0,0,0)"/><rect id="rect5142" width=".794" height=".265" x="-294.09" y="-2.381" fill="#4d4d4d" fill-opacity="1" stroke="none" stroke-dasharray="none" stroke-miterlimit="4" stroke-opacity="1" stroke-width="4.104" opacity="1" transform="matrix(0,-1,-1,0,0,0)"/></g></svg>