<svg xmlns="http://www.w3.org/2000/svg" xmlns:svg="http://www.w3.org/2000/svg" id="svg2" width="18" height="18" version="1.1" viewBox="0 0 18 18"><metadata id="metadata7"/><g id="layer2" display="inline"><path id="path4285" fill="#7c7c7c" fill-opacity="1" fill-rule="evenodd" stroke="none" stroke-dasharray="none" stroke-linecap="butt" stroke-linejoin="miter" stroke-miterlimit="4" stroke-opacity="1" stroke-width=".2" d="m 11,2.417 -3.919,0 C 5.9221816,2.512914 6.1175708,3.9860664 7.0811711,3.8613047 L 7.0808288,7.8 3.066,12.663362 l 1.8202904,2.419922 7.9042966,0 L 15.035,12.714143 10.993829,7.8 11,3.8866953 C 11.940714,3.9657461 12.166504,2.5418605 11,2.417 Z m -2.7718289,1.4443047 1.6189429,0 L 9.846886,8 11.781,10.386019 l -5.524,0 L 8.2518288,8 Z"/><path id="path4137" fill="#7c7c7c" fill-opacity="1" d="M 15.144029,7.9372863 13.738694,7.2052957 12.338993,7.9479999 12.600885,6.3852502 11.462,5.283563 13.029192,5.0497212 13.725024,3.6261368 14.43171,5.0443643 16.000643,5.2662279 14.870206,6.3765826 Z"/></g></svg>